<svg width="763" height="632" viewBox="0 0 763 632" fill="none" xmlns="http://www.w3.org/2000/svg">
<g clip-path="url(#clip0)">
<path d="M96.1158 494.853L132.863 460.548L150.289 444.475C151.931 442.96 153.191 441.078 153.965 438.982C154.74 436.887 155.006 434.637 154.744 432.419C154.481 430.2 153.696 428.076 152.453 426.219C151.211 424.362 149.546 422.827 147.595 421.738C145.872 420.776 143.966 420.185 142.001 420.004C140.036 419.823 138.055 420.055 136.185 420.686C134.315 421.317 132.598 422.332 131.144 423.667C129.69 425.001 128.532 426.625 127.743 428.434L122.012 441.585L86.4165 478.507L96.1158 494.853Z" fill="#FFB9B9"/>
<path d="M91.3129 472.602L104.217 494.096L51.8307 526.231C5.64636 493.034 -3.49602 482.23 7.8197 429.351L16.8197 420.351L60.337 490.932L91.3129 472.602Z" fill="#FAD000"/>
<path d="M167.39 412.84C167.907 412.33 168.583 412.013 169.306 411.942C170.029 411.871 170.754 412.05 171.361 412.449L195.62 428.25C196.019 428.509 196.354 428.855 196.602 429.261C196.85 429.667 197.004 430.123 197.053 430.596C197.102 431.069 197.044 431.547 196.885 431.995C196.725 432.443 196.467 432.85 196.13 433.185L134.436 494.612C134.136 494.91 133.78 495.146 133.388 495.306C132.997 495.466 132.577 495.546 132.154 495.542C131.731 495.538 131.313 495.449 130.924 495.282C130.535 495.115 130.184 494.872 129.89 494.568L109.672 473.643C109.087 473.035 108.767 472.222 108.779 471.379C108.791 470.536 109.135 469.732 109.737 469.142L167.39 412.84Z" fill="#3F3D56"/>
<path d="M190.841 429.94L188.33 428.339C188.595 428.81 188.692 429.357 188.606 429.891C188.52 430.424 188.256 430.913 187.857 431.277C187.458 431.641 186.947 431.86 186.408 431.896C185.868 431.933 185.333 431.786 184.888 431.48L168.641 420.311C168.272 420.057 167.981 419.705 167.803 419.294C167.624 418.884 167.564 418.431 167.63 417.988C167.696 417.545 167.885 417.129 168.175 416.789C168.466 416.448 168.846 416.195 169.274 416.06L167.98 415.236C167.812 415.129 167.613 415.082 167.415 415.105C167.217 415.127 167.033 415.216 166.893 415.358L112.239 469.067C112.158 469.15 112.094 469.248 112.051 469.356C112.007 469.463 111.986 469.579 111.988 469.695C111.99 469.811 112.016 469.925 112.062 470.031C112.109 470.137 112.177 470.233 112.261 470.312L132.11 489.653C132.275 489.808 132.493 489.893 132.719 489.89C132.946 489.887 133.162 489.796 133.322 489.636L190.988 431.29C191.08 431.198 191.15 431.087 191.194 430.964C191.237 430.841 191.253 430.71 191.238 430.58C191.224 430.45 191.181 430.326 191.113 430.215C191.044 430.104 190.951 430.01 190.841 429.94Z" fill="white"/>
<path d="M127.763 457.208L144.529 473.016L184.408 433.616L164.169 420.442L127.763 457.208Z" fill="#FAD000"/>
<path d="M182.858 443.339C182.749 443.23 182.688 443.083 182.688 442.929C182.688 442.775 182.749 442.628 182.858 442.519L186.345 439.031C186.456 438.926 186.602 438.867 186.755 438.867C186.908 438.867 187.055 438.926 187.166 439.031C187.274 439.14 187.335 439.288 187.335 439.442C187.335 439.595 187.274 439.743 187.166 439.852L183.678 443.339C183.568 443.445 183.421 443.504 183.268 443.504C183.115 443.504 182.968 443.445 182.858 443.339Z" fill="#E6E6E6"/>
<path d="M176.983 448.393L180.47 444.906C180.524 444.852 180.588 444.809 180.658 444.78C180.729 444.751 180.804 444.736 180.88 444.736C180.957 444.736 181.032 444.751 181.103 444.78C181.173 444.809 181.237 444.852 181.291 444.906C181.345 444.96 181.387 445.024 181.417 445.094C181.446 445.165 181.461 445.24 181.461 445.316C181.461 445.393 181.446 445.468 181.417 445.538C181.387 445.609 181.345 445.673 181.291 445.727L177.803 449.214C177.695 449.323 177.547 449.384 177.393 449.384C177.239 449.384 177.092 449.323 176.983 449.214C176.874 449.105 176.813 448.958 176.813 448.804C176.813 448.65 176.874 448.502 176.983 448.393Z" fill="#E6E6E6"/>
<path d="M128.15 474.693C125.987 474.693 124.233 472.94 124.233 470.777C124.233 468.614 125.987 466.86 128.15 466.86C130.313 466.86 132.066 468.614 132.066 470.777C132.066 472.94 130.313 474.693 128.15 474.693Z" fill="#FAD000"/>
<path d="M-37.6183 609.239H266.12V607.133H-38.0003L-37.6183 609.239Z" fill="#3F3D56"/>
<path d="M379.829 598.852L399.725 604.105C402.551 609.685 407.381 613.993 413.247 616.166C419.112 618.339 425.583 618.218 431.363 615.826L431.797 615.646C434.434 614.52 436.893 613.019 439.099 611.188C447.456 604.414 461.379 600.918 479.841 600.095C480.973 599.739 481.955 599.017 482.632 598.043C483.308 597.068 483.642 595.896 483.579 594.711C483.514 593.462 483.012 592.275 482.163 591.358C481.313 590.44 480.169 589.849 478.929 589.687L379.377 576.702L379.829 598.852Z" fill="#E6E6E6"/>
<path d="M121.715 616.481C173.766 608.134 221.185 594.623 260.943 572.572L384.349 602.858L383.897 575.798L287.436 541.965C271.162 536.257 253.868 534.047 236.682 535.479L121.715 556.812L121.715 616.481Z" fill="#2F2E41"/>
<path d="M320.157 627.341C320.549 626.032 320.508 624.632 320.039 623.35C319.57 622.067 318.699 620.97 317.555 620.223L270.887 595.688L259.586 566.305L240.149 578.51L245.573 600.208L244.291 609.187C243.888 612.003 244.096 614.873 244.899 617.602C245.702 620.331 247.083 622.855 248.947 625.004C250.811 627.153 253.115 628.877 255.703 630.058C258.29 631.239 261.102 631.851 263.947 631.851H314.095C315.456 631.851 316.781 631.412 317.873 630.599C318.965 629.787 319.765 628.644 320.157 627.341Z" fill="#E6E6E6"/>
<path d="M58.8817 599.756C115.24 669.825 154.017 593.506 192.233 512.513L238.341 587.551L266.367 567.661L218.04 461.342C216.847 458.718 215.048 456.415 212.792 454.622C210.535 452.829 207.884 451.598 205.058 451.03C202.233 450.462 199.312 450.573 196.538 451.354C193.763 452.135 191.214 453.564 189.1 455.523L121.715 530.594L109.058 529.69L58.8817 599.756Z" fill="#2F2E41"/>
<path d="M55.7174 399.503C37.243 399.503 22.2666 384.527 22.2666 366.052C22.2666 347.578 37.243 332.602 55.7174 332.602C74.1918 332.602 89.1682 347.578 89.1682 366.052C89.1682 384.527 74.1918 399.503 55.7174 399.503Z" fill="#FFB9B9"/>
<path d="M13.2258 425.721L50.293 433.858C53.8513 418.594 59.0026 403.746 65.6622 389.558L31.3073 376.901C27.0855 393.788 21.022 410.159 13.2258 425.721Z" fill="#FFB9B9"/>
<path d="M55.7173 608.345L121.715 530.594L94.8404 485.924C92.0117 465.83 81.633 450.035 65.6622 437.425L54.8133 419.393L22.2665 405.832C10.839 414.922 2.71534 427.515 -0.85437 441.674C-4.42408 455.833 -3.24199 470.773 2.51001 484.194L55.7173 608.345Z" fill="#FAD000"/>
<path d="M112.674 522.458L152.453 491.719L171.299 477.337C173.075 475.982 174.504 474.225 175.47 472.21C176.436 470.196 176.911 467.981 176.855 465.748C176.8 463.514 176.216 461.326 175.152 459.362C174.087 457.397 172.572 455.713 170.731 454.448C169.105 453.33 167.263 452.565 165.323 452.201C163.384 451.838 161.389 451.885 159.469 452.339C157.548 452.793 155.744 453.645 154.172 454.838C152.601 456.031 151.296 457.54 150.343 459.268L143.413 471.829L104.537 505.28L112.674 522.458Z" fill="#FFB9B9"/>
<path d="M109.962 499.856L120.811 522.458L65.6622 549.58C22.7662 512.231 -1.1517 476.415 15.0339 424.817L35.8277 430.242L77.4152 515.225L109.962 499.856Z" fill="#FAD000"/>
<path d="M12.2909 327.501C4.93532 327.501 -1.02759 321.538 -1.02759 314.182C-1.02759 306.827 4.93532 300.864 12.2909 300.864C19.6465 300.864 25.6093 306.827 25.6093 314.182C25.6093 321.538 19.6465 327.501 12.2909 327.501Z" fill="#2F2E41"/>
<path d="M26.0143 310.922C25.7955 307.543 24.2968 304.374 21.8235 302.061C19.3502 299.749 16.0884 298.466 12.7022 298.474C12.9772 298.439 13.2498 298.397 13.5302 298.379C17.0552 298.152 20.5259 299.335 23.1787 301.667C25.8314 303.999 27.4491 307.29 27.6757 310.815C27.9023 314.34 26.7194 317.811 24.3871 320.463C22.0548 323.116 18.7642 324.734 15.2392 324.961C14.9588 324.979 14.683 324.971 14.4058 324.972C17.7651 324.547 20.8359 322.856 22.9927 320.246C25.1495 317.636 26.23 314.301 26.0143 310.922Z" fill="#2F2E41"/>
<path d="M26.0895 316.609C37.9674 306.756 72.0364 319.279 74.2348 325.904C90.2971 328.093 102.458 337.464 102.458 354.127V354.127C92.9087 358.039 82.048 357.557 70.3076 354.127C51.5924 369.379 50.3094 388.552 61.6911 410.574L47.6885 410.854L30.3317 385.486L29.5018 411.218L-2.59552 410.574V373.699C-2.69929 361.439 0.12262 349.331 5.63599 338.379C10.6378 328.662 18.4001 322.988 26.0895 316.609Z" fill="#2F2E41"/>
<path d="M55.9785 381.758C52.4611 381.758 49.6096 377.766 49.6096 372.842C49.6096 367.917 52.4611 363.925 55.9785 363.925C59.496 363.925 62.3474 367.917 62.3474 372.842C62.3474 377.766 59.496 381.758 55.9785 381.758Z" fill="#FFB8B8"/>
<rect x="65" y="92" width="347" height="146" rx="5" fill="#2D2B55"/>
<path d="M103.722 124.635C103.722 123.854 103.424 123.248 102.828 122.818C102.242 122.389 101.231 121.993 99.7959 121.632C98.3604 121.271 97.2227 120.88 96.3828 120.46C94.4785 119.503 93.5264 118.15 93.5264 116.402C93.5264 115.006 94.1172 113.873 95.2988 113.004C96.4902 112.135 98.0186 111.7 99.8838 111.7C101.798 111.7 103.36 112.188 104.571 113.165C105.792 114.142 106.402 115.392 106.402 116.915H103.692C103.692 115.958 103.346 115.221 102.652 114.703C101.969 114.176 101.036 113.912 99.8545 113.912C98.751 113.912 97.8721 114.132 97.2178 114.571C96.5635 115.001 96.2363 115.606 96.2363 116.388C96.2363 117.022 96.5342 117.555 97.1299 117.984C97.7354 118.414 98.7998 118.824 100.323 119.215C101.847 119.605 103.038 120.05 103.897 120.548C104.757 121.036 105.396 121.612 105.816 122.276C106.236 122.94 106.446 123.717 106.446 124.605C106.446 126.041 105.851 127.174 104.659 128.004C103.478 128.824 101.915 129.234 99.9717 129.234C97.9502 129.234 96.2705 128.741 94.9326 127.755C93.6045 126.759 92.9404 125.47 92.9404 123.888H95.665C95.665 124.884 96.041 125.66 96.793 126.217C97.5449 126.773 98.6045 127.052 99.9717 127.052C101.202 127.052 102.135 126.832 102.77 126.393C103.404 125.943 103.722 125.357 103.722 124.635ZM112.364 129H109.64V111.935H112.364V129ZM130.353 126.803C129.708 127.613 128.814 128.224 127.672 128.634C126.539 129.034 125.235 129.234 123.761 129.234C121.437 129.234 119.571 128.507 118.165 127.052C116.759 125.597 116.046 123.639 116.026 121.178V119.859C116.026 117.301 116.676 115.304 117.975 113.868C119.283 112.423 121.119 111.7 123.482 111.7C125.436 111.7 127.003 112.159 128.185 113.077C129.366 113.995 130.089 115.338 130.353 117.105H127.657C127.286 114.986 125.904 113.927 123.512 113.927C121.959 113.927 120.777 114.43 119.967 115.436C119.156 116.441 118.751 117.916 118.751 119.859V121.09C118.751 122.945 119.2 124.4 120.099 125.455C121.007 126.5 122.242 127.022 123.805 127.022C125.582 127.022 126.866 126.661 127.657 125.938V122.452H123.541V120.343H130.353V126.803ZM148.385 129H145.689L136.827 116.168V129H134.117V111.935H136.827L145.689 124.781V111.935H148.385V129ZM173.023 111.935V123.36C173.023 125.138 172.413 126.563 171.192 127.638C169.972 128.702 168.341 129.234 166.3 129.234C164.249 129.234 162.623 128.722 161.422 127.696C160.221 126.661 159.605 125.255 159.576 123.478V111.935H162.257V123.36C162.257 124.542 162.604 125.45 163.297 126.085C164 126.71 165.001 127.022 166.3 127.022C167.579 127.022 168.565 126.715 169.259 126.1C169.962 125.475 170.313 124.562 170.313 123.36V111.935H173.023ZM179.425 122.584V129H176.715V111.935H183.556C185.548 111.935 187.135 112.423 188.316 113.399C189.498 114.366 190.089 115.67 190.089 117.311C190.089 118.971 189.518 120.265 188.375 121.192C187.232 122.12 185.616 122.584 183.526 122.584H179.425ZM179.425 120.357H183.556C184.767 120.357 185.704 120.099 186.368 119.581C187.032 119.063 187.364 118.316 187.364 117.34C187.364 116.402 187.032 115.646 186.368 115.069C185.704 114.483 184.791 114.186 183.629 114.176H179.425V120.357Z" fill="white"/>
<line x1="90.9915" y1="166.008" x2="209.991" y2="165" stroke="#FAD000" stroke-width="2"/>
<line x1="233.992" y1="165.008" x2="352.991" y2="164" stroke="white" stroke-width="2"/>
<line x1="91.9915" y1="211.008" x2="210.991" y2="210" stroke="white" stroke-width="2"/>
<line y1="-1" x2="119.006" y2="-1" transform="matrix(0.999951 -0.00988187 0.00726715 0.999974 92 192)" stroke="white" stroke-width="2"/>
<line x1="233.992" y1="210.008" x2="352.991" y2="209" stroke="white" stroke-width="2"/>
<path d="M92.6211 162V156.04H91.5356V155.132H92.6211V154.548C92.6211 153.782 92.839 153.185 93.2749 152.758C93.715 152.33 94.335 152.117 95.1348 152.117C95.6087 152.117 96.2075 152.246 96.9312 152.504L96.7344 153.494C96.2054 153.283 95.7018 153.177 95.2236 153.177C94.7201 153.177 94.3561 153.291 94.1318 153.52C93.9118 153.744 93.8018 154.082 93.8018 154.535V155.132H95.2046V156.04H93.8018V162H92.6211ZM97.5151 162H96.3345V155.132H97.5151V162ZM102.746 156.186C102.568 156.156 102.375 156.141 102.168 156.141C101.398 156.141 100.875 156.469 100.6 157.125V162H99.4258V155.132H100.568L100.587 155.925C100.972 155.312 101.518 155.005 102.225 155.005C102.454 155.005 102.627 155.035 102.746 155.094V156.186ZM107.83 160.178C107.83 159.861 107.709 159.615 107.468 159.442C107.231 159.264 106.814 159.112 106.218 158.985C105.625 158.858 105.153 158.706 104.802 158.528C104.455 158.35 104.197 158.139 104.028 157.893C103.863 157.648 103.78 157.356 103.78 157.017C103.78 156.454 104.017 155.978 104.491 155.589C104.969 155.2 105.579 155.005 106.319 155.005C107.098 155.005 107.729 155.206 108.211 155.608C108.698 156.01 108.941 156.524 108.941 157.15H107.76C107.76 156.829 107.623 156.552 107.348 156.319C107.077 156.086 106.734 155.97 106.319 155.97C105.892 155.97 105.558 156.063 105.316 156.249C105.075 156.435 104.955 156.679 104.955 156.979C104.955 157.263 105.067 157.476 105.291 157.62C105.515 157.764 105.919 157.902 106.503 158.033C107.092 158.164 107.568 158.32 107.932 158.502C108.296 158.684 108.564 158.904 108.738 159.163C108.916 159.417 109.004 159.728 109.004 160.096C109.004 160.709 108.759 161.202 108.268 161.575C107.777 161.943 107.14 162.127 106.357 162.127C105.807 162.127 105.321 162.03 104.897 161.835C104.474 161.64 104.142 161.369 103.901 161.022C103.664 160.671 103.545 160.292 103.545 159.886H104.72C104.741 160.28 104.897 160.593 105.189 160.826C105.486 161.054 105.875 161.168 106.357 161.168C106.802 161.168 107.157 161.08 107.424 160.902C107.695 160.72 107.83 160.479 107.83 160.178ZM112.127 153.469V155.132H113.41V156.04H112.127V160.299C112.127 160.574 112.185 160.781 112.299 160.921C112.413 161.056 112.608 161.124 112.883 161.124C113.018 161.124 113.204 161.099 113.441 161.048V162C113.132 162.085 112.832 162.127 112.54 162.127C112.015 162.127 111.62 161.968 111.353 161.651C111.086 161.333 110.953 160.883 110.953 160.299V156.04H109.703V155.132H110.953V153.469H112.127ZM119.123 155.132L119.161 155.995C119.685 155.335 120.371 155.005 121.217 155.005C122.669 155.005 123.401 155.824 123.414 157.461V162H122.239V157.455C122.235 156.96 122.121 156.594 121.896 156.357C121.676 156.12 121.332 156.001 120.862 156.001C120.481 156.001 120.147 156.103 119.859 156.306C119.571 156.509 119.347 156.776 119.186 157.106V162H118.012V155.132H119.123ZM129.425 162C129.357 161.865 129.302 161.623 129.26 161.276C128.714 161.843 128.062 162.127 127.305 162.127C126.628 162.127 126.071 161.937 125.635 161.556C125.204 161.171 124.988 160.684 124.988 160.096C124.988 159.381 125.259 158.826 125.8 158.433C126.346 158.035 127.112 157.836 128.098 157.836H129.241V157.296C129.241 156.886 129.118 156.56 128.873 156.319C128.627 156.073 128.265 155.951 127.787 155.951C127.368 155.951 127.017 156.056 126.733 156.268C126.45 156.48 126.308 156.736 126.308 157.036H125.127C125.127 156.693 125.248 156.363 125.489 156.046C125.735 155.724 126.065 155.47 126.479 155.284C126.898 155.098 127.358 155.005 127.857 155.005C128.648 155.005 129.268 155.204 129.717 155.602C130.165 155.995 130.398 156.539 130.415 157.233V160.394C130.415 161.025 130.495 161.526 130.656 161.898V162H129.425ZM127.476 161.105C127.844 161.105 128.193 161.01 128.523 160.819C128.854 160.629 129.093 160.381 129.241 160.077V158.667H128.32C126.882 158.667 126.162 159.089 126.162 159.931C126.162 160.299 126.285 160.587 126.53 160.794C126.776 161.001 127.091 161.105 127.476 161.105ZM133.36 155.132L133.392 155.894C133.896 155.301 134.575 155.005 135.43 155.005C136.39 155.005 137.044 155.373 137.391 156.109C137.62 155.779 137.916 155.513 138.28 155.31C138.648 155.106 139.082 155.005 139.581 155.005C141.088 155.005 141.854 155.803 141.879 157.398V162H140.705V157.468C140.705 156.977 140.592 156.611 140.368 156.37C140.144 156.124 139.767 156.001 139.238 156.001C138.802 156.001 138.441 156.133 138.153 156.395C137.865 156.653 137.698 157.002 137.651 157.442V162H136.471V157.5C136.471 156.501 135.982 156.001 135.004 156.001C134.234 156.001 133.707 156.329 133.424 156.985V162H132.25V155.132H133.36ZM146.506 162.127C145.575 162.127 144.818 161.822 144.234 161.213C143.65 160.599 143.358 159.78 143.358 158.756V158.541C143.358 157.859 143.487 157.252 143.745 156.719C144.007 156.181 144.371 155.762 144.837 155.462C145.307 155.157 145.814 155.005 146.36 155.005C147.253 155.005 147.947 155.299 148.442 155.887C148.938 156.475 149.185 157.318 149.185 158.414V158.902H144.532C144.549 159.579 144.746 160.127 145.123 160.546C145.503 160.961 145.986 161.168 146.57 161.168C146.985 161.168 147.336 161.084 147.624 160.915C147.911 160.745 148.163 160.521 148.379 160.242L149.096 160.8C148.521 161.685 147.657 162.127 146.506 162.127ZM146.36 155.97C145.886 155.97 145.489 156.143 145.167 156.49C144.845 156.833 144.646 157.315 144.57 157.938H148.011V157.849C147.977 157.252 147.816 156.791 147.528 156.465C147.241 156.135 146.851 155.97 146.36 155.97Z" fill="white"/>
<path d="M236.189 161H235.015V151.25H236.189V161ZM242.314 161C242.247 160.865 242.192 160.623 242.149 160.276C241.604 160.843 240.952 161.127 240.194 161.127C239.517 161.127 238.961 160.937 238.525 160.556C238.093 160.171 237.877 159.684 237.877 159.096C237.877 158.381 238.148 157.826 238.69 157.433C239.236 157.035 240.002 156.836 240.988 156.836H242.13V156.296C242.13 155.886 242.008 155.56 241.762 155.319C241.517 155.073 241.155 154.951 240.677 154.951C240.258 154.951 239.907 155.056 239.623 155.268C239.34 155.48 239.198 155.736 239.198 156.036H238.017C238.017 155.693 238.138 155.363 238.379 155.046C238.624 154.724 238.954 154.47 239.369 154.284C239.788 154.098 240.247 154.005 240.747 154.005C241.538 154.005 242.158 154.204 242.606 154.602C243.055 154.995 243.288 155.539 243.305 156.233V159.394C243.305 160.025 243.385 160.526 243.546 160.898V161H242.314ZM240.366 160.105C240.734 160.105 241.083 160.01 241.413 159.819C241.743 159.629 241.982 159.381 242.13 159.077V157.667H241.21C239.771 157.667 239.052 158.089 239.052 158.931C239.052 159.299 239.174 159.587 239.42 159.794C239.665 160.001 239.981 160.105 240.366 160.105ZM249.145 159.178C249.145 158.861 249.024 158.615 248.783 158.442C248.546 158.264 248.129 158.112 247.532 157.985C246.94 157.858 246.468 157.706 246.117 157.528C245.77 157.35 245.512 157.139 245.342 156.893C245.177 156.648 245.095 156.356 245.095 156.017C245.095 155.454 245.332 154.978 245.806 154.589C246.284 154.2 246.893 154.005 247.634 154.005C248.412 154.005 249.043 154.206 249.525 154.608C250.012 155.01 250.255 155.524 250.255 156.15H249.075C249.075 155.829 248.937 155.552 248.662 155.319C248.391 155.086 248.049 154.97 247.634 154.97C247.206 154.97 246.872 155.063 246.631 155.249C246.39 155.435 246.269 155.679 246.269 155.979C246.269 156.263 246.381 156.476 246.605 156.62C246.83 156.764 247.234 156.902 247.818 157.033C248.406 157.164 248.882 157.32 249.246 157.502C249.61 157.684 249.879 157.904 250.052 158.163C250.23 158.417 250.319 158.728 250.319 159.096C250.319 159.709 250.073 160.202 249.583 160.575C249.092 160.943 248.455 161.127 247.672 161.127C247.122 161.127 246.635 161.03 246.212 160.835C245.789 160.64 245.457 160.369 245.215 160.022C244.978 159.671 244.86 159.292 244.86 158.886H246.034C246.055 159.28 246.212 159.593 246.504 159.826C246.8 160.054 247.189 160.168 247.672 160.168C248.116 160.168 248.472 160.08 248.738 159.902C249.009 159.72 249.145 159.479 249.145 159.178ZM253.442 152.469V154.132H254.724V155.04H253.442V159.299C253.442 159.574 253.499 159.781 253.613 159.921C253.728 160.056 253.922 160.124 254.197 160.124C254.333 160.124 254.519 160.099 254.756 160.048V161C254.447 161.085 254.146 161.127 253.854 161.127C253.33 161.127 252.934 160.968 252.667 160.651C252.401 160.333 252.268 159.883 252.268 159.299V155.04H251.017V154.132H252.268V152.469H253.442ZM260.437 154.132L260.475 154.995C261 154.335 261.685 154.005 262.532 154.005C263.983 154.005 264.715 154.824 264.728 156.461V161H263.554V156.455C263.549 155.96 263.435 155.594 263.211 155.357C262.991 155.12 262.646 155.001 262.176 155.001C261.795 155.001 261.461 155.103 261.173 155.306C260.886 155.509 260.661 155.776 260.5 156.106V161H259.326V154.132H260.437ZM270.739 161C270.672 160.865 270.617 160.623 270.574 160.276C270.028 160.843 269.377 161.127 268.619 161.127C267.942 161.127 267.386 160.937 266.95 160.556C266.518 160.171 266.302 159.684 266.302 159.096C266.302 158.381 266.573 157.826 267.115 157.433C267.661 157.035 268.427 156.836 269.413 156.836H270.555V156.296C270.555 155.886 270.432 155.56 270.187 155.319C269.942 155.073 269.58 154.951 269.102 154.951C268.683 154.951 268.331 155.056 268.048 155.268C267.764 155.48 267.623 155.736 267.623 156.036H266.442C266.442 155.693 266.562 155.363 266.804 155.046C267.049 154.724 267.379 154.47 267.794 154.284C268.213 154.098 268.672 154.005 269.171 154.005C269.963 154.005 270.583 154.204 271.031 154.602C271.48 154.995 271.713 155.539 271.729 156.233V159.394C271.729 160.025 271.81 160.526 271.971 160.898V161H270.739ZM268.791 160.105C269.159 160.105 269.508 160.01 269.838 159.819C270.168 159.629 270.407 159.381 270.555 159.077V157.667H269.635C268.196 157.667 267.477 158.089 267.477 158.931C267.477 159.299 267.599 159.587 267.845 159.794C268.09 160.001 268.405 160.105 268.791 160.105ZM274.675 154.132L274.707 154.894C275.21 154.301 275.889 154.005 276.744 154.005C277.705 154.005 278.359 154.373 278.706 155.109C278.934 154.779 279.23 154.513 279.594 154.31C279.962 154.106 280.396 154.005 280.896 154.005C282.402 154.005 283.168 154.803 283.193 156.398V161H282.019V156.468C282.019 155.977 281.907 155.611 281.683 155.37C281.458 155.124 281.082 155.001 280.553 155.001C280.117 155.001 279.755 155.133 279.467 155.395C279.18 155.653 279.012 156.002 278.966 156.442V161H277.785V156.5C277.785 155.501 277.296 155.001 276.319 155.001C275.549 155.001 275.022 155.329 274.738 155.985V161H273.564V154.132H274.675ZM287.821 161.127C286.89 161.127 286.132 160.822 285.548 160.213C284.964 159.599 284.672 158.78 284.672 157.756V157.541C284.672 156.859 284.801 156.252 285.06 155.719C285.322 155.181 285.686 154.762 286.151 154.462C286.621 154.157 287.129 154.005 287.675 154.005C288.568 154.005 289.262 154.299 289.757 154.887C290.252 155.475 290.5 156.318 290.5 157.414V157.902H285.847C285.864 158.579 286.06 159.127 286.437 159.546C286.818 159.961 287.3 160.168 287.884 160.168C288.299 160.168 288.65 160.084 288.938 159.915C289.226 159.745 289.478 159.521 289.693 159.242L290.411 159.8C289.835 160.685 288.972 161.127 287.821 161.127ZM287.675 154.97C287.201 154.97 286.803 155.143 286.481 155.49C286.16 155.833 285.961 156.315 285.885 156.938H289.325V156.849C289.291 156.252 289.131 155.791 288.843 155.465C288.555 155.135 288.166 154.97 287.675 154.97Z" fill="white"/>
<path d="M95.895 207.127C94.964 207.127 94.2065 206.822 93.6226 206.213C93.0386 205.599 92.7466 204.78 92.7466 203.756V203.541C92.7466 202.859 92.8757 202.252 93.1338 201.719C93.3962 201.181 93.7601 200.762 94.2256 200.462C94.6953 200.157 95.2031 200.005 95.749 200.005C96.6419 200.005 97.3359 200.299 97.8311 200.887C98.3262 201.475 98.5737 202.318 98.5737 203.414V203.902H93.9209C93.9378 204.579 94.1346 205.127 94.5112 205.546C94.8921 205.961 95.3745 206.168 95.9585 206.168C96.3732 206.168 96.7244 206.084 97.0122 205.915C97.3 205.745 97.5518 205.521 97.7676 205.242L98.4849 205.8C97.9093 206.685 97.0461 207.127 95.895 207.127ZM95.749 200.97C95.2751 200.97 94.8773 201.143 94.5557 201.49C94.234 201.833 94.0352 202.315 93.959 202.938H97.3994V202.849C97.3656 202.252 97.2048 201.791 96.917 201.465C96.6292 201.135 96.2399 200.97 95.749 200.97ZM101.043 200.132L101.075 200.894C101.578 200.301 102.257 200.005 103.112 200.005C104.073 200.005 104.727 200.373 105.074 201.109C105.302 200.779 105.598 200.513 105.962 200.31C106.331 200.106 106.764 200.005 107.264 200.005C108.77 200.005 109.536 200.803 109.562 202.398V207H108.387V202.468C108.387 201.977 108.275 201.611 108.051 201.37C107.826 201.124 107.45 201.001 106.921 201.001C106.485 201.001 106.123 201.133 105.835 201.395C105.548 201.653 105.381 202.002 105.334 202.442V207H104.153V202.5C104.153 201.501 103.665 201.001 102.687 201.001C101.917 201.001 101.39 201.329 101.106 201.985V207H99.9321V200.132H101.043ZM115.579 207C115.511 206.865 115.456 206.623 115.414 206.276C114.868 206.843 114.216 207.127 113.459 207.127C112.782 207.127 112.225 206.937 111.79 206.556C111.358 206.171 111.142 205.684 111.142 205.096C111.142 204.381 111.413 203.826 111.955 203.433C112.5 203.035 113.266 202.836 114.252 202.836H115.395V202.296C115.395 201.886 115.272 201.56 115.027 201.319C114.781 201.073 114.42 200.951 113.941 200.951C113.522 200.951 113.171 201.056 112.888 201.268C112.604 201.48 112.462 201.736 112.462 202.036H111.282C111.282 201.693 111.402 201.363 111.644 201.046C111.889 200.724 112.219 200.47 112.634 200.284C113.053 200.098 113.512 200.005 114.011 200.005C114.803 200.005 115.423 200.204 115.871 200.602C116.32 200.995 116.552 201.539 116.569 202.233V205.394C116.569 206.025 116.65 206.526 116.811 206.898V207H115.579ZM113.63 206.105C113.999 206.105 114.348 206.01 114.678 205.819C115.008 205.629 115.247 205.381 115.395 205.077V203.667H114.475C113.036 203.667 112.316 204.089 112.316 204.931C112.316 205.299 112.439 205.587 112.685 205.794C112.93 206.001 113.245 206.105 113.63 206.105ZM119.686 207H118.512V200.132H119.686V207ZM118.417 198.31C118.417 198.12 118.474 197.959 118.588 197.828C118.706 197.696 118.88 197.631 119.108 197.631C119.337 197.631 119.51 197.696 119.629 197.828C119.747 197.959 119.807 198.12 119.807 198.31C119.807 198.5 119.747 198.659 119.629 198.786C119.51 198.913 119.337 198.977 119.108 198.977C118.88 198.977 118.706 198.913 118.588 198.786C118.474 198.659 118.417 198.5 118.417 198.31ZM122.847 207H121.673V197.25H122.847V207Z" fill="white"/>
<path d="M92.8354 182.509C92.8354 181.455 93.0851 180.609 93.5845 179.97C94.0838 179.326 94.7376 179.005 95.5459 179.005C96.3499 179.005 96.9868 179.28 97.4565 179.83V176.25H98.6309V186H97.5518L97.4946 185.264C97.0249 185.839 96.3711 186.127 95.5332 186.127C94.7376 186.127 94.0881 185.801 93.5845 185.149C93.0851 184.498 92.8354 183.647 92.8354 182.598V182.509ZM94.0098 182.642C94.0098 183.421 94.1706 184.03 94.4922 184.47C94.8138 184.91 95.2581 185.13 95.8252 185.13C96.57 185.13 97.1138 184.796 97.4565 184.127V180.973C97.1053 180.325 96.5658 180.001 95.8379 180.001C95.2624 180.001 94.8138 180.224 94.4922 180.668C94.1706 181.112 94.0098 181.77 94.0098 182.642ZM104.699 186C104.632 185.865 104.576 185.623 104.534 185.276C103.988 185.843 103.337 186.127 102.579 186.127C101.902 186.127 101.346 185.937 100.91 185.556C100.478 185.171 100.262 184.684 100.262 184.096C100.262 183.381 100.533 182.826 101.075 182.433C101.621 182.035 102.387 181.836 103.373 181.836H104.515V181.296C104.515 180.886 104.392 180.56 104.147 180.319C103.902 180.073 103.54 179.951 103.062 179.951C102.643 179.951 102.291 180.056 102.008 180.268C101.724 180.48 101.583 180.736 101.583 181.036H100.402C100.402 180.693 100.522 180.363 100.764 180.046C101.009 179.724 101.339 179.47 101.754 179.284C102.173 179.098 102.632 179.005 103.131 179.005C103.923 179.005 104.543 179.204 104.991 179.602C105.44 179.995 105.673 180.539 105.689 181.233V184.394C105.689 185.025 105.77 185.526 105.931 185.898V186H104.699ZM102.75 185.105C103.119 185.105 103.468 185.01 103.798 184.819C104.128 184.629 104.367 184.381 104.515 184.077V182.667H103.595C102.156 182.667 101.437 183.089 101.437 183.931C101.437 184.299 101.559 184.587 101.805 184.794C102.05 185.001 102.365 185.105 102.75 185.105ZM109.124 177.469V179.132H110.406V180.04H109.124V184.299C109.124 184.574 109.181 184.781 109.295 184.921C109.409 185.056 109.604 185.124 109.879 185.124C110.014 185.124 110.201 185.099 110.438 185.048V186C110.129 186.085 109.828 186.127 109.536 186.127C109.011 186.127 108.616 185.968 108.349 185.651C108.083 185.333 107.949 184.883 107.949 184.299V180.04H106.699V179.132H107.949V177.469H109.124ZM114.633 186.127C113.702 186.127 112.945 185.822 112.361 185.213C111.777 184.599 111.485 183.78 111.485 182.756V182.541C111.485 181.859 111.614 181.252 111.872 180.719C112.134 180.181 112.498 179.762 112.964 179.462C113.434 179.157 113.941 179.005 114.487 179.005C115.38 179.005 116.074 179.299 116.569 179.887C117.064 180.475 117.312 181.318 117.312 182.414V182.902H112.659C112.676 183.579 112.873 184.127 113.25 184.546C113.63 184.961 114.113 185.168 114.697 185.168C115.111 185.168 115.463 185.084 115.75 184.915C116.038 184.745 116.29 184.521 116.506 184.242L117.223 184.8C116.648 185.685 115.784 186.127 114.633 186.127ZM114.487 179.97C114.013 179.97 113.616 180.143 113.294 180.49C112.972 180.833 112.773 181.315 112.697 181.938H116.138V181.849C116.104 181.252 115.943 180.791 115.655 180.465C115.368 180.135 114.978 179.97 114.487 179.97ZM121.59 182.502C121.59 181.83 121.722 181.224 121.984 180.687C122.25 180.15 122.619 179.735 123.088 179.443C123.562 179.151 124.102 179.005 124.707 179.005C125.642 179.005 126.398 179.329 126.973 179.976C127.553 180.624 127.843 181.485 127.843 182.56V182.642C127.843 183.311 127.714 183.912 127.456 184.445C127.202 184.974 126.836 185.386 126.357 185.683C125.883 185.979 125.338 186.127 124.72 186.127C123.789 186.127 123.033 185.803 122.454 185.156C121.878 184.508 121.59 183.651 121.59 182.585V182.502ZM122.771 182.642C122.771 183.404 122.947 184.015 123.298 184.477C123.653 184.938 124.127 185.168 124.72 185.168C125.316 185.168 125.79 184.936 126.142 184.47C126.493 184 126.668 183.345 126.668 182.502C126.668 181.749 126.489 181.14 126.129 180.674C125.773 180.205 125.299 179.97 124.707 179.97C124.127 179.97 123.66 180.2 123.304 180.662C122.949 181.123 122.771 181.783 122.771 182.642ZM129.893 186V180.04H128.808V179.132H129.893V178.427C129.893 177.691 130.09 177.122 130.483 176.72C130.877 176.318 131.433 176.117 132.153 176.117C132.424 176.117 132.692 176.153 132.959 176.225L132.896 177.177C132.697 177.139 132.485 177.12 132.261 177.12C131.88 177.12 131.586 177.232 131.378 177.456C131.171 177.676 131.067 177.993 131.067 178.408V179.132H132.534V180.04H131.067V186H129.893ZM142.874 182.642C142.874 183.692 142.633 184.536 142.15 185.175C141.668 185.81 141.021 186.127 140.208 186.127C139.34 186.127 138.67 185.82 138.196 185.207L138.139 186H137.06V176.25H138.234V179.887C138.708 179.299 139.362 179.005 140.195 179.005C141.029 179.005 141.683 179.32 142.157 179.951C142.635 180.581 142.874 181.444 142.874 182.541V182.642ZM141.7 182.509C141.7 181.709 141.545 181.091 141.236 180.655C140.927 180.219 140.483 180.001 139.903 180.001C139.129 180.001 138.572 180.361 138.234 181.081V184.051C138.594 184.771 139.154 185.13 139.916 185.13C140.479 185.13 140.917 184.912 141.23 184.477C141.543 184.041 141.7 183.385 141.7 182.509ZM145.635 186H144.461V179.132H145.635V186ZM144.366 177.31C144.366 177.12 144.423 176.959 144.537 176.828C144.656 176.696 144.829 176.631 145.058 176.631C145.286 176.631 145.46 176.696 145.578 176.828C145.697 176.959 145.756 177.12 145.756 177.31C145.756 177.5 145.697 177.659 145.578 177.786C145.46 177.913 145.286 177.977 145.058 177.977C144.829 177.977 144.656 177.913 144.537 177.786C144.423 177.659 144.366 177.5 144.366 177.31ZM150.84 180.186C150.663 180.156 150.47 180.141 150.263 180.141C149.493 180.141 148.97 180.469 148.695 181.125V186H147.521V179.132H148.663L148.682 179.925C149.067 179.312 149.613 179.005 150.32 179.005C150.548 179.005 150.722 179.035 150.84 179.094V180.186ZM153.836 177.469V179.132H155.119V180.04H153.836V184.299C153.836 184.574 153.894 184.781 154.008 184.921C154.122 185.056 154.317 185.124 154.592 185.124C154.727 185.124 154.913 185.099 155.15 185.048V186C154.841 186.085 154.541 186.127 154.249 186.127C153.724 186.127 153.329 185.968 153.062 185.651C152.795 185.333 152.662 184.883 152.662 184.299V180.04H151.412V179.132H152.662V177.469H153.836ZM157.67 179.963C158.191 179.324 158.868 179.005 159.702 179.005C161.153 179.005 161.885 179.824 161.898 181.461V186H160.724V181.455C160.719 180.96 160.605 180.594 160.381 180.357C160.161 180.12 159.816 180.001 159.346 180.001C158.965 180.001 158.631 180.103 158.343 180.306C158.056 180.509 157.831 180.776 157.67 181.106V186H156.496V176.25H157.67V179.963Z" fill="white"/>
<path d="M240.899 202.642C240.899 203.687 240.66 204.529 240.182 205.168C239.703 205.807 239.056 206.127 238.239 206.127C237.406 206.127 236.75 205.862 236.271 205.333V208.641H235.097V199.132H236.17L236.227 199.894C236.705 199.301 237.37 199.005 238.22 199.005C239.045 199.005 239.697 199.316 240.175 199.938C240.658 200.56 240.899 201.425 240.899 202.534V202.642ZM239.725 202.509C239.725 201.734 239.56 201.123 239.229 200.674C238.899 200.226 238.447 200.001 237.871 200.001C237.16 200.001 236.627 200.317 236.271 200.947V204.229C236.623 204.855 237.16 205.168 237.884 205.168C238.447 205.168 238.893 204.946 239.223 204.502C239.557 204.053 239.725 203.389 239.725 202.509ZM246.637 206C246.569 205.865 246.514 205.623 246.472 205.276C245.926 205.843 245.275 206.127 244.517 206.127C243.84 206.127 243.284 205.937 242.848 205.556C242.416 205.171 242.2 204.684 242.2 204.096C242.2 203.381 242.471 202.826 243.013 202.433C243.559 202.035 244.325 201.836 245.311 201.836H246.453V201.296C246.453 200.886 246.33 200.56 246.085 200.319C245.84 200.073 245.478 199.951 245 199.951C244.581 199.951 244.229 200.056 243.946 200.268C243.662 200.48 243.521 200.736 243.521 201.036H242.34C242.34 200.693 242.46 200.363 242.702 200.046C242.947 199.724 243.277 199.47 243.692 199.284C244.111 199.098 244.57 199.005 245.069 199.005C245.861 199.005 246.481 199.204 246.929 199.602C247.378 199.995 247.611 200.539 247.627 201.233V204.394C247.627 205.025 247.708 205.526 247.869 205.898V206H246.637ZM244.688 205.105C245.057 205.105 245.406 205.01 245.736 204.819C246.066 204.629 246.305 204.381 246.453 204.077V202.667H245.533C244.094 202.667 243.375 203.089 243.375 203.931C243.375 204.299 243.497 204.587 243.743 204.794C243.988 205.001 244.303 205.105 244.688 205.105ZM253.467 204.178C253.467 203.861 253.347 203.615 253.105 203.442C252.868 203.264 252.452 203.112 251.855 202.985C251.263 202.858 250.791 202.706 250.439 202.528C250.092 202.35 249.834 202.139 249.665 201.893C249.5 201.648 249.417 201.356 249.417 201.017C249.417 200.454 249.654 199.978 250.128 199.589C250.607 199.2 251.216 199.005 251.957 199.005C252.735 199.005 253.366 199.206 253.848 199.608C254.335 200.01 254.578 200.524 254.578 201.15H253.397C253.397 200.829 253.26 200.552 252.985 200.319C252.714 200.086 252.371 199.97 251.957 199.97C251.529 199.97 251.195 200.063 250.954 200.249C250.712 200.435 250.592 200.679 250.592 200.979C250.592 201.263 250.704 201.476 250.928 201.62C251.153 201.764 251.557 201.902 252.141 202.033C252.729 202.164 253.205 202.32 253.569 202.502C253.933 202.684 254.201 202.904 254.375 203.163C254.553 203.417 254.642 203.728 254.642 204.096C254.642 204.709 254.396 205.202 253.905 205.575C253.414 205.943 252.778 206.127 251.995 206.127C251.444 206.127 250.958 206.03 250.535 205.835C250.111 205.64 249.779 205.369 249.538 205.022C249.301 204.671 249.183 204.292 249.183 203.886H250.357C250.378 204.28 250.535 204.593 250.827 204.826C251.123 205.054 251.512 205.168 251.995 205.168C252.439 205.168 252.794 205.08 253.061 204.902C253.332 204.72 253.467 204.479 253.467 204.178ZM260.17 204.178C260.17 203.861 260.05 203.615 259.809 203.442C259.572 203.264 259.155 203.112 258.558 202.985C257.966 202.858 257.494 202.706 257.143 202.528C256.796 202.35 256.537 202.139 256.368 201.893C256.203 201.648 256.121 201.356 256.121 201.017C256.121 200.454 256.358 199.978 256.832 199.589C257.31 199.2 257.919 199.005 258.66 199.005C259.438 199.005 260.069 199.206 260.551 199.608C261.038 200.01 261.281 200.524 261.281 201.15H260.101C260.101 200.829 259.963 200.552 259.688 200.319C259.417 200.086 259.074 199.97 258.66 199.97C258.232 199.97 257.898 200.063 257.657 200.249C257.416 200.435 257.295 200.679 257.295 200.979C257.295 201.263 257.407 201.476 257.631 201.62C257.856 201.764 258.26 201.902 258.844 202.033C259.432 202.164 259.908 202.32 260.272 202.502C260.636 202.684 260.905 202.904 261.078 203.163C261.256 203.417 261.345 203.728 261.345 204.096C261.345 204.709 261.099 205.202 260.608 205.575C260.118 205.943 259.481 206.127 258.698 206.127C258.148 206.127 257.661 206.03 257.238 205.835C256.815 205.64 256.482 205.369 256.241 205.022C256.004 204.671 255.886 204.292 255.886 203.886H257.06C257.081 204.28 257.238 204.593 257.53 204.826C257.826 205.054 258.215 205.168 258.698 205.168C259.142 205.168 259.498 205.08 259.764 204.902C260.035 204.72 260.17 204.479 260.17 204.178ZM268.956 204.381L270.276 199.132H271.45L269.451 206H268.499L266.829 200.795L265.204 206H264.252L262.259 199.132H263.427L264.779 204.273L266.378 199.132H267.324L268.956 204.381ZM272.339 202.502C272.339 201.83 272.47 201.224 272.732 200.687C272.999 200.15 273.367 199.735 273.837 199.443C274.311 199.151 274.85 199.005 275.456 199.005C276.391 199.005 277.146 199.329 277.722 199.976C278.301 200.624 278.591 201.485 278.591 202.56V202.642C278.591 203.311 278.462 203.912 278.204 204.445C277.95 204.974 277.584 205.386 277.106 205.683C276.632 205.979 276.086 206.127 275.468 206.127C274.537 206.127 273.782 205.803 273.202 205.156C272.627 204.508 272.339 203.651 272.339 202.585V202.502ZM273.52 202.642C273.52 203.404 273.695 204.015 274.046 204.477C274.402 204.938 274.876 205.168 275.468 205.168C276.065 205.168 276.539 204.936 276.89 204.47C277.241 204 277.417 203.345 277.417 202.502C277.417 201.749 277.237 201.14 276.877 200.674C276.522 200.205 276.048 199.97 275.456 199.97C274.876 199.97 274.408 200.2 274.053 200.662C273.697 201.123 273.52 201.783 273.52 202.642ZM283.384 200.186C283.206 200.156 283.014 200.141 282.806 200.141C282.036 200.141 281.513 200.469 281.238 201.125V206H280.064V199.132H281.207L281.226 199.925C281.611 199.312 282.157 199.005 282.863 199.005C283.092 199.005 283.265 199.035 283.384 199.094V200.186ZM284.057 202.509C284.057 201.455 284.306 200.609 284.806 199.97C285.305 199.326 285.959 199.005 286.767 199.005C287.571 199.005 288.208 199.28 288.678 199.83V196.25H289.852V206H288.773L288.716 205.264C288.246 205.839 287.592 206.127 286.754 206.127C285.959 206.127 285.309 205.801 284.806 205.149C284.306 204.498 284.057 203.647 284.057 202.598V202.509ZM285.231 202.642C285.231 203.421 285.392 204.03 285.713 204.47C286.035 204.91 286.479 205.13 287.046 205.13C287.791 205.13 288.335 204.796 288.678 204.127V200.973C288.326 200.325 287.787 200.001 287.059 200.001C286.484 200.001 286.035 200.224 285.713 200.668C285.392 201.112 285.231 201.77 285.231 202.642Z" fill="white"/>
<path d="M234.108 181.509C234.108 180.438 234.355 179.588 234.851 178.957C235.346 178.322 236.002 178.005 236.818 178.005C237.656 178.005 238.31 178.301 238.78 178.894L238.837 178.132H239.91V184.835C239.91 185.724 239.645 186.424 239.116 186.936C238.591 187.448 237.885 187.704 236.996 187.704C236.501 187.704 236.016 187.598 235.542 187.387C235.069 187.175 234.707 186.885 234.457 186.517L235.066 185.812C235.57 186.435 236.186 186.746 236.914 186.746C237.485 186.746 237.929 186.585 238.247 186.263C238.568 185.942 238.729 185.489 238.729 184.905V184.314C238.259 184.856 237.618 185.127 236.806 185.127C236.002 185.127 235.35 184.803 234.851 184.156C234.355 183.508 234.108 182.626 234.108 181.509ZM235.289 181.642C235.289 182.417 235.447 183.026 235.765 183.47C236.082 183.91 236.526 184.13 237.098 184.13C237.838 184.13 238.382 183.794 238.729 183.121V179.985C238.369 179.329 237.83 179.001 237.11 179.001C236.539 179.001 236.093 179.224 235.771 179.668C235.449 180.112 235.289 180.77 235.289 181.642ZM244.537 185.127C243.606 185.127 242.849 184.822 242.265 184.213C241.681 183.599 241.389 182.78 241.389 181.756V181.541C241.389 180.859 241.518 180.252 241.776 179.719C242.038 179.181 242.402 178.762 242.868 178.462C243.337 178.157 243.845 178.005 244.391 178.005C245.284 178.005 245.978 178.299 246.473 178.887C246.968 179.475 247.216 180.318 247.216 181.414V181.902H242.563C242.58 182.579 242.777 183.127 243.153 183.546C243.534 183.961 244.017 184.168 244.601 184.168C245.015 184.168 245.367 184.084 245.654 183.915C245.942 183.745 246.194 183.521 246.41 183.242L247.127 183.8C246.551 184.685 245.688 185.127 244.537 185.127ZM244.391 178.97C243.917 178.97 243.519 179.143 243.198 179.49C242.876 179.833 242.677 180.315 242.601 180.938H246.042V180.849C246.008 180.252 245.847 179.791 245.559 179.465C245.271 179.135 244.882 178.97 244.391 178.97ZM249.691 178.132L249.729 178.995C250.254 178.335 250.94 178.005 251.786 178.005C253.238 178.005 253.97 178.824 253.982 180.461V185H252.808V180.455C252.804 179.96 252.69 179.594 252.465 179.357C252.245 179.12 251.9 179.001 251.431 179.001C251.05 179.001 250.715 179.103 250.428 179.306C250.14 179.509 249.916 179.776 249.755 180.106V185H248.581V178.132H249.691ZM255.468 181.509C255.468 180.455 255.717 179.609 256.217 178.97C256.716 178.326 257.37 178.005 258.178 178.005C258.982 178.005 259.619 178.28 260.089 178.83V175.25H261.263V185H260.184L260.127 184.264C259.657 184.839 259.003 185.127 258.166 185.127C257.37 185.127 256.72 184.801 256.217 184.149C255.717 183.498 255.468 182.647 255.468 181.598V181.509ZM256.642 181.642C256.642 182.421 256.803 183.03 257.125 183.47C257.446 183.91 257.89 184.13 258.458 184.13C259.202 184.13 259.746 183.796 260.089 183.127V179.973C259.738 179.325 259.198 179.001 258.47 179.001C257.895 179.001 257.446 179.224 257.125 179.668C256.803 180.112 256.642 180.77 256.642 181.642ZM265.941 185.127C265.01 185.127 264.253 184.822 263.669 184.213C263.085 183.599 262.793 182.78 262.793 181.756V181.541C262.793 180.859 262.922 180.252 263.18 179.719C263.443 179.181 263.806 178.762 264.272 178.462C264.742 178.157 265.25 178.005 265.795 178.005C266.688 178.005 267.382 178.299 267.877 178.887C268.373 179.475 268.62 180.318 268.62 181.414V181.902H263.967C263.984 182.579 264.181 183.127 264.558 183.546C264.938 183.961 265.421 184.168 266.005 184.168C266.42 184.168 266.771 184.084 267.059 183.915C267.346 183.745 267.598 183.521 267.814 183.242L268.531 183.8C267.956 184.685 267.092 185.127 265.941 185.127ZM265.795 178.97C265.321 178.97 264.924 179.143 264.602 179.49C264.28 179.833 264.082 180.315 264.005 180.938H267.446V180.849C267.412 180.252 267.251 179.791 266.963 179.465C266.676 179.135 266.286 178.97 265.795 178.97ZM273.305 179.186C273.127 179.156 272.934 179.141 272.727 179.141C271.957 179.141 271.434 179.469 271.159 180.125V185H269.985V178.132H271.127L271.146 178.925C271.532 178.312 272.077 178.005 272.784 178.005C273.013 178.005 273.186 178.035 273.305 178.094V179.186Z" fill="white"/>
<rect x="65" y="92" width="347" height="146" rx="5" stroke="#FAD000" stroke-width="2"/>
</g>
<defs>
<clipPath id="clip0">
<rect width="800.514" height="631.851" fill="white" transform="matrix(-1 0 0 1 762.514 0)"/>
</clipPath>
</defs>
</svg>
