<svg width="801" height="632" viewBox="0 0 801 632" fill="none" xmlns="http://www.w3.org/2000/svg">
<g clip-path="url(#clip0)">
<path d="M134.116 494.853L170.863 460.548L188.289 444.475C189.931 442.96 191.191 441.078 191.965 438.982C192.74 436.887 193.006 434.637 192.744 432.419C192.481 430.2 191.696 428.076 190.453 426.219C189.211 424.362 187.546 422.827 185.595 421.738C183.872 420.776 181.966 420.185 180.001 420.004C178.036 419.823 176.055 420.055 174.185 420.686C172.315 421.317 170.598 422.332 169.144 423.667C167.69 425.001 166.532 426.625 165.743 428.434L160.012 441.585L124.417 478.507L134.116 494.853Z" fill="#FFB9B9"/>
<path d="M129.313 472.601L142.217 494.096L89.8307 526.231C43.6464 493.034 34.504 482.23 45.8197 429.351L54.8197 420.351L98.337 490.932L129.313 472.601Z" fill="#FAD000"/>
<path d="M205.39 412.84C205.907 412.33 206.583 412.013 207.306 411.942C208.029 411.871 208.754 412.05 209.361 412.449L233.62 428.25C234.019 428.509 234.354 428.855 234.602 429.261C234.85 429.667 235.004 430.123 235.053 430.596C235.102 431.069 235.044 431.547 234.885 431.995C234.725 432.443 234.467 432.85 234.13 433.185L172.436 494.612C172.136 494.91 171.78 495.146 171.388 495.306C170.997 495.466 170.577 495.546 170.154 495.542C169.731 495.538 169.313 495.449 168.924 495.282C168.535 495.115 168.184 494.872 167.89 494.568L147.672 473.643C147.087 473.035 146.767 472.222 146.779 471.379C146.791 470.536 147.135 469.732 147.737 469.142L205.39 412.84Z" fill="#3F3D56"/>
<path d="M228.841 429.94L226.33 428.339C226.595 428.81 226.692 429.357 226.606 429.891C226.52 430.424 226.256 430.913 225.857 431.277C225.458 431.641 224.947 431.86 224.408 431.896C223.868 431.933 223.333 431.786 222.888 431.48L206.641 420.311C206.272 420.057 205.981 419.705 205.803 419.294C205.624 418.884 205.564 418.431 205.63 417.988C205.696 417.545 205.885 417.129 206.175 416.789C206.466 416.448 206.846 416.195 207.274 416.06L205.98 415.236C205.812 415.129 205.613 415.082 205.415 415.105C205.217 415.127 205.033 415.216 204.893 415.358L150.239 469.067C150.158 469.15 150.094 469.248 150.051 469.356C150.007 469.463 149.986 469.579 149.988 469.695C149.99 469.811 150.016 469.925 150.062 470.031C150.109 470.137 150.177 470.233 150.261 470.312L170.11 489.653C170.275 489.808 170.493 489.893 170.719 489.89C170.946 489.887 171.162 489.796 171.322 489.636L228.988 431.29C229.08 431.198 229.15 431.087 229.194 430.964C229.237 430.841 229.253 430.71 229.238 430.58C229.224 430.45 229.181 430.326 229.113 430.215C229.044 430.104 228.951 430.01 228.841 429.94Z" fill="white"/>
<path d="M165.763 457.208L182.529 473.016L222.408 433.616L202.169 420.442L165.763 457.208Z" fill="#FAD000"/>
<path d="M220.858 443.339C220.749 443.23 220.688 443.083 220.688 442.929C220.688 442.775 220.749 442.628 220.858 442.519L224.345 439.031C224.456 438.926 224.602 438.867 224.755 438.867C224.908 438.867 225.055 438.926 225.166 439.031C225.274 439.14 225.335 439.288 225.335 439.442C225.335 439.595 225.274 439.743 225.166 439.852L221.678 443.339C221.568 443.445 221.421 443.504 221.268 443.504C221.115 443.504 220.968 443.445 220.858 443.339Z" fill="#E6E6E6"/>
<path d="M214.983 448.393L218.47 444.906C218.524 444.852 218.588 444.809 218.658 444.78C218.729 444.751 218.804 444.736 218.88 444.736C218.957 444.736 219.032 444.751 219.103 444.78C219.173 444.809 219.237 444.852 219.291 444.906C219.345 444.96 219.387 445.024 219.417 445.094C219.446 445.165 219.461 445.24 219.461 445.316C219.461 445.393 219.446 445.468 219.417 445.538C219.387 445.609 219.345 445.673 219.291 445.727L215.803 449.214C215.695 449.323 215.547 449.384 215.393 449.384C215.239 449.384 215.092 449.323 214.983 449.214C214.874 449.105 214.813 448.958 214.813 448.804C214.813 448.65 214.874 448.502 214.983 448.393Z" fill="#E6E6E6"/>
<path d="M166.15 474.693C163.987 474.693 162.233 472.94 162.233 470.777C162.233 468.614 163.987 466.86 166.15 466.86C168.313 466.86 170.066 468.614 170.066 470.777C170.066 472.94 168.313 474.693 166.15 474.693Z" fill="#FAD000"/>
<path d="M0.381653 609.239H304.12V607.133H-0.000305176L0.381653 609.239Z" fill="#3F3D56"/>
<path d="M35.1127 607.864V304.126H33.0067V608.245L35.1127 607.864Z" fill="#3F3D56"/>
<path d="M417.829 598.852L437.725 604.105C440.551 609.685 445.381 613.993 451.247 616.166C457.112 618.339 463.583 618.218 469.363 615.826L469.797 615.646C472.434 614.52 474.893 613.019 477.099 611.188C485.456 604.414 499.379 600.918 517.841 600.095C518.973 599.739 519.955 599.017 520.632 598.043C521.308 597.068 521.642 595.896 521.579 594.711C521.514 593.462 521.012 592.275 520.163 591.358C519.313 590.44 518.169 589.849 516.929 589.687L417.377 576.702L417.829 598.852Z" fill="#E6E6E6"/>
<path d="M159.715 616.481C211.766 608.134 259.185 594.623 298.943 572.572L422.349 602.858L421.897 575.798L325.436 541.965C309.162 536.257 291.868 534.047 274.682 535.479L159.715 556.812L159.715 616.481Z" fill="#2F2E41"/>
<path d="M358.157 627.341C358.549 626.032 358.508 624.632 358.039 623.35C357.57 622.067 356.699 620.97 355.555 620.223L308.887 595.688L297.586 566.305L278.149 578.51L283.573 600.208L282.291 609.187C281.888 612.003 282.096 614.873 282.899 617.602C283.702 620.331 285.083 622.855 286.947 625.004C288.811 627.153 291.115 628.877 293.703 630.058C296.29 631.239 299.102 631.851 301.947 631.851H352.095C353.456 631.851 354.781 631.412 355.873 630.599C356.965 629.787 357.765 628.644 358.157 627.341Z" fill="#E6E6E6"/>
<path d="M96.8817 599.756C153.24 669.825 192.017 593.506 230.233 512.513L276.341 587.551L304.367 567.661L256.04 461.342C254.847 458.718 253.048 456.415 250.792 454.622C248.535 452.829 245.884 451.598 243.058 451.03C240.233 450.462 237.312 450.573 234.538 451.354C231.763 452.135 229.214 453.564 227.1 455.523L159.715 530.594L147.058 529.69L96.8817 599.756Z" fill="#2F2E41"/>
<path d="M93.7174 399.503C75.243 399.503 60.2666 384.527 60.2666 366.052C60.2666 347.578 75.243 332.602 93.7174 332.602C112.192 332.602 127.168 347.578 127.168 366.052C127.168 384.527 112.192 399.503 93.7174 399.503Z" fill="#FFB9B9"/>
<path d="M51.2258 425.721L88.293 433.858C91.8513 418.594 97.0026 403.746 103.662 389.558L69.3073 376.901C65.0855 393.788 59.022 410.159 51.2258 425.721Z" fill="#FFB9B9"/>
<path d="M93.7173 608.345L159.715 530.594L132.84 485.924C130.012 465.83 119.633 450.035 103.662 437.425L92.8133 419.393L60.2665 405.832C48.839 414.922 40.7153 427.515 37.1456 441.674C33.5759 455.833 34.758 470.773 40.51 484.194L93.7173 608.345Z" fill="#FAD000"/>
<path d="M150.674 522.458L190.453 491.719L209.299 477.337C211.075 475.982 212.504 474.225 213.47 472.21C214.436 470.196 214.911 467.981 214.855 465.748C214.8 463.514 214.216 461.326 213.152 459.362C212.087 457.397 210.572 455.713 208.731 454.448C207.105 453.33 205.263 452.565 203.323 452.201C201.384 451.838 199.389 451.885 197.469 452.339C195.548 452.793 193.744 453.645 192.172 454.838C190.601 456.031 189.296 457.54 188.343 459.268L181.413 471.829L142.537 505.28L150.674 522.458Z" fill="#FFB9B9"/>
<path d="M147.962 499.856L158.811 522.458L103.662 549.58C60.7662 512.231 36.8483 476.415 53.0339 424.817L73.8277 430.242L115.415 515.225L147.962 499.856Z" fill="#FAD000"/>
<path d="M50.2909 327.501C42.9353 327.501 36.9724 321.538 36.9724 314.182C36.9724 306.827 42.9353 300.864 50.2909 300.864C57.6465 300.864 63.6093 306.827 63.6093 314.182C63.6093 321.538 57.6465 327.501 50.2909 327.501Z" fill="#2F2E41"/>
<path d="M64.0143 310.922C63.7955 307.543 62.2968 304.374 59.8235 302.061C57.3502 299.749 54.0884 298.466 50.7022 298.474C50.9772 298.439 51.2498 298.397 51.5302 298.379C55.0552 298.152 58.5259 299.335 61.1787 301.667C63.8314 303.999 65.4491 307.29 65.6757 310.815C65.9023 314.34 64.7194 317.811 62.3871 320.463C60.0548 323.116 56.7642 324.734 53.2392 324.961C52.9588 324.979 52.683 324.971 52.4058 324.972C55.7651 324.547 58.8359 322.856 60.9927 320.246C63.1495 317.636 64.23 314.301 64.0143 310.922Z" fill="#2F2E41"/>
<path d="M64.0895 316.609C75.9674 306.756 110.036 319.279 112.235 325.904C128.297 328.093 140.458 337.464 140.458 354.127V354.127C130.909 358.039 120.048 357.557 108.308 354.127C89.5924 369.379 88.3094 388.552 99.6911 410.574L85.6885 410.854L68.3317 385.487L67.5018 411.218L35.4045 410.574V373.7C35.3007 361.439 38.1226 349.331 43.636 338.38C48.6378 328.662 56.4001 322.988 64.0895 316.609Z" fill="#2F2E41"/>
<path d="M93.9785 381.758C90.4611 381.758 87.6096 377.766 87.6096 372.842C87.6096 367.917 90.4611 363.925 93.9785 363.925C97.496 363.925 100.347 367.917 100.347 372.842C100.347 377.766 97.496 381.758 93.9785 381.758Z" fill="#FFB8B8"/>
</g>
<defs>
<clipPath id="clip0">
<rect width="800.514" height="631.851" fill="white" transform="matrix(-1 0 0 1 800.514 0)"/>
</clipPath>
</defs>
</svg>

