<svg width="725" height="607" viewBox="0 0 725 607" fill="none" xmlns="http://www.w3.org/2000/svg">
<g clip-path="url(#clip0)">
<path d="M782.01 542.382C782.01 542.382 833.63 372.775 757.617 380.886C681.605 388.998 782.01 542.382 782.01 542.382Z" fill="#E6E6E6"/>
<path d="M47.5671 547.669C47.5671 547.669 134.516 507.642 103.971 479.885C73.4259 452.127 47.5671 547.669 47.5671 547.669Z" fill="#E6E6E6"/>
<path d="M49.0805 557.009C49.0805 557.009 89.0455 425.697 30.1955 431.977C-28.6545 438.257 49.0805 557.009 49.0805 557.009Z" fill="#E6E6E6"/>
<path d="M78.2194 545.363L76.542 567.329L76.5154 567.708C76.517 571.138 76.3437 574.566 75.9962 577.979C73.7198 600.384 63.935 610.595 52.4995 610.595C41.064 610.595 31.7053 600.384 29.4288 577.979C29.0813 574.566 28.9081 571.138 28.9097 567.708L28.8963 567.402L28.8897 567.329L27.2056 545.363H78.2194Z" fill="#E6E6E6"/>
<path d="M28.8897 567.329L28.8963 567.402L28.9097 567.708C28.9081 571.138 29.0813 574.566 29.4288 577.979H75.9962C76.3437 574.566 76.517 571.138 76.5154 567.708L76.542 567.329H28.8897Z" fill="white"/>
<path d="M590.235 182.587V144H596.235V182.587C597.956 183.283 599.381 184.556 600.267 186.188C601.152 187.82 601.442 189.709 601.088 191.531C600.733 193.354 599.756 194.996 598.323 196.177C596.89 197.357 595.092 198.003 593.235 198.003C591.379 198.003 589.58 197.357 588.147 196.177C586.714 194.996 585.737 193.354 585.382 191.531C585.028 189.709 585.318 187.82 586.203 186.188C587.089 184.556 588.514 183.283 590.235 182.587Z" fill="#E6E6E6"/>
<path d="M576.235 572H617.235V74H633.235V572H674.235C679.094 572 683.905 572.957 688.394 574.816C692.883 576.676 696.962 579.401 700.398 582.837C703.834 586.273 706.559 590.352 708.419 594.841C710.278 599.33 711.235 604.141 711.235 609V609H539.235V609C539.235 604.141 540.192 599.33 542.052 594.841C543.911 590.352 546.636 586.273 550.072 582.837C553.508 579.401 557.587 576.676 562.076 574.816C566.565 572.957 571.376 572 576.235 572Z" fill="#E6E6E6"/>
<path d="M711.152 148H539.318L549.826 16.6597C550.21 12.1308 552.275 7.90962 555.615 4.82654C558.954 1.74346 563.327 0.0216936 567.872 0H682.598C687.143 0.0216925 691.516 1.74345 694.856 4.82652C698.195 7.9096 700.26 12.1308 700.644 16.6597L711.152 148Z" fill="#FAD000"/>
<path d="M471.896 378.52C473.512 378.251 475.166 378.306 476.761 378.681C478.356 379.057 479.861 379.746 481.187 380.708C482.514 381.67 483.636 382.885 484.489 384.285C485.341 385.684 485.907 387.239 486.154 388.859L490.992 420.607L474.532 424.973L462.471 395.392C461.77 393.673 461.465 391.819 461.579 389.966C461.692 388.113 462.221 386.31 463.126 384.689C464.032 383.069 465.29 381.673 466.808 380.605C468.326 379.537 470.065 378.824 471.896 378.52Z" fill="#A0616A"/>
<path d="M472.204 420.548C463.069 456.85 467 490.054 501.016 516.124C541.816 504.878 568.951 477.743 585.507 438.306C586.537 435.854 587.058 433.219 587.041 430.56C587.024 427.901 586.468 425.272 585.407 422.834C584.346 420.395 582.802 418.197 580.868 416.372C578.934 414.547 576.65 413.132 574.154 412.214C570.405 410.835 566.324 410.631 562.455 411.628C558.586 412.625 555.112 414.777 552.496 417.796L512.464 464L493.685 417.411L472.204 420.548Z" fill="#FAD000"/>
<path d="M263.163 611.007C300.416 609.028 323.559 596.237 329.163 570.007L323.163 559.007L254.469 590.301C252.734 591.091 251.274 592.379 250.274 594.001C249.273 595.623 248.778 597.506 248.85 599.41C248.923 601.315 249.56 603.155 250.68 604.696C251.801 606.237 253.355 607.411 255.144 608.067L263.163 611.007Z" fill="#E6E6E6"/>
<path d="M291.948 611.27C311.305 610.683 329.919 610.866 347.557 612.059C350.651 612.271 353.704 611.254 356.052 609.229C358.401 607.204 359.857 604.335 360.104 601.244L361.163 588.007L376.163 564.007L363.163 551.007C341.316 572.766 317.357 591.042 288.9 601.906C287.986 602.533 287.299 603.439 286.942 604.488C286.585 605.538 286.578 606.675 286.921 607.729C287.264 608.783 287.939 609.697 288.846 610.335C289.752 610.974 290.84 611.301 291.948 611.27Z" fill="#E6E6E6"/>
<path d="M397.163 517.007C421.88 561.233 446.188 591.047 478.163 607.007C517.502 619.991 546.254 602.789 568.663 567.507L503.663 524.507L494.163 534.007L408.065 468.489C405.962 466.497 403.158 465.416 400.263 465.481C397.367 465.545 394.614 466.75 392.601 468.832L319.163 559.007L328.163 574.007L397.163 517.007Z" fill="#2F2E41"/>
<path d="M375.163 569.007L409.163 517.007L401.163 502.007L356.163 549.007L375.163 569.007Z" fill="#2F2E41"/>
<path d="M571.163 403.007C552.385 403.007 537.163 387.785 537.163 369.007C537.163 350.229 552.385 335.007 571.163 335.007C589.941 335.007 605.163 350.229 605.163 369.007C605.163 387.785 589.941 403.007 571.163 403.007Z" fill="#A0616A"/>
<path d="M562.163 432.007L600.163 419.007C594.54 410.071 592.075 399.508 593.163 389.007H562.163C563.926 404.265 564.19 418.737 562.163 432.007Z" fill="#A0616A"/>
<g clip-path="url(#clip1)">
<path d="M520.169 454.202C520.691 454.822 520.989 455.666 521 456.55C521.01 457.435 520.732 458.289 520.226 458.926L503.209 479.978C502.954 480.297 502.65 480.552 502.313 480.728C501.976 480.903 501.614 480.996 501.247 481C500.88 481.004 500.517 480.92 500.177 480.753C499.838 480.585 499.529 480.337 499.269 480.024L446.814 415.545C446.522 415.193 446.299 414.766 446.161 414.296C446.022 413.825 445.973 413.323 446.015 412.827C446.057 412.33 446.191 411.851 446.406 411.425C446.62 410.999 446.911 410.637 447.256 410.364L466.77 394.692C467.295 394.273 467.924 394.085 468.55 394.16C469.177 394.234 469.763 394.567 470.211 395.102L520.169 454.202Z" fill="#3F3D56"/>
<path d="M449.889 413.052L452.065 411.372C451.836 411.866 451.751 412.44 451.826 413C451.901 413.56 452.129 414.073 452.475 414.456C452.821 414.838 453.264 415.067 453.731 415.106C454.198 415.144 454.662 414.99 455.048 414.669L469.126 402.944C469.446 402.678 469.698 402.309 469.853 401.878C470.008 401.446 470.06 400.971 470.003 400.506C469.946 400.041 469.782 399.605 469.53 399.247C469.278 398.889 468.948 398.625 468.578 398.483L469.699 397.617C469.845 397.505 470.017 397.456 470.189 397.48C470.36 397.503 470.52 397.597 470.641 397.745L518.001 454.124C518.072 454.21 518.127 454.313 518.165 454.426C518.202 454.539 518.22 454.66 518.218 454.782C518.217 454.904 518.195 455.024 518.154 455.135C518.114 455.247 518.055 455.347 517.982 455.431L500.782 475.732C500.639 475.895 500.45 475.984 500.254 475.981C500.058 475.978 499.871 475.882 499.732 475.714L449.762 414.469C449.682 414.373 449.621 414.256 449.584 414.127C449.546 413.998 449.533 413.86 449.545 413.724C449.557 413.588 449.594 413.457 449.654 413.34C449.714 413.224 449.794 413.126 449.889 413.052Z" fill="white"/>
<path d="M504.55 441.675L490.021 458.268L455.464 416.91L473.002 403.083L504.55 441.675Z" fill="#E6E6E6"/>
<path d="M456.807 427.117C456.711 427.228 456.584 427.29 456.452 427.29C456.319 427.29 456.192 427.228 456.096 427.117L453.074 423.457C452.98 423.342 452.927 423.187 452.927 423.026C452.927 422.864 452.98 422.71 453.074 422.595C453.17 422.484 453.297 422.423 453.43 422.423C453.562 422.423 453.689 422.484 453.785 422.595L456.807 426.256C456.901 426.37 456.954 426.525 456.954 426.687C456.954 426.848 456.901 427.003 456.807 427.117Z" fill="#3F3D56"/>
<path d="M461.898 433.284C461.804 433.398 461.676 433.462 461.543 433.462C461.409 433.462 461.281 433.398 461.187 433.284L458.165 429.623C458.118 429.567 458.081 429.5 458.056 429.426C458.03 429.352 458.017 429.272 458.017 429.192C458.017 429.112 458.03 429.033 458.056 428.959C458.081 428.885 458.118 428.818 458.165 428.761C458.211 428.705 458.267 428.66 458.328 428.629C458.389 428.599 458.454 428.583 458.52 428.583C458.586 428.583 458.652 428.599 458.713 428.63C458.774 428.66 458.829 428.705 458.876 428.762L461.898 432.423C461.992 432.537 462.045 432.692 462.045 432.853C462.045 433.015 461.992 433.17 461.898 433.284Z" fill="#3F3D56"/>
<path d="M504.214 460.029C502.34 460.029 500.82 458.189 500.82 455.918C500.82 453.647 502.34 451.807 504.214 451.807C506.088 451.807 507.608 453.647 507.608 455.918C507.608 458.189 506.088 460.029 504.214 460.029Z" fill="#FAD000"/>
<path d="M485.045 442.367C479.873 442.367 475.681 439.606 475.681 436.2C475.681 432.794 479.873 430.033 485.045 430.033C490.217 430.033 494.41 432.794 494.41 436.2C494.41 439.606 490.217 442.367 485.045 442.367Z" fill="white"/>
</g>
<path d="M481.163 523.007C486.86 525.346 487.277 532.93 492.663 535.507C518.703 547.966 546.252 558.075 565.163 576.007C609.356 545.997 650.318 452.789 597.163 412.007C579.019 422.624 562.812 430.222 563.163 412.007L481.163 523.007Z" fill="#FAD000"/>
<path opacity="0.2" d="M504.163 483.007L522.663 476.507L559.163 505.007L575.525 446.104C576.66 442.018 578.499 444.089 581.139 446.927C583.891 444.38 587.314 442.672 591.005 442.006C594.695 441.341 598.499 441.744 601.968 443.169C605.437 444.594 608.426 446.981 610.583 450.049C612.74 453.117 613.975 456.737 614.142 460.483C616.088 503.21 603.203 539.357 571.163 567.007C529.256 558.034 511.471 529.72 504.163 493.007L506.144 491.686C505.414 488.849 504.754 485.956 504.163 483.007Z" fill="black"/>
<path d="M566.588 324.281C555.373 326.843 542.608 330.474 541.892 333.848C530.356 336.755 521.648 343.719 519.87 354.335C519.721 355.252 519.776 356.191 520.029 357.086C520.283 357.98 520.73 358.808 521.338 359.51C521.946 360.213 522.701 360.775 523.549 361.154C524.398 361.534 525.319 361.723 526.248 361.708C532.522 361.627 541.941 361.026 548.16 358.429C566.227 370.07 569.259 400.347 561.369 420.956L573.785 419.818L586.63 382.216L589.911 418.34L618.244 414.594L614.595 368.529C613.473 357.672 609.778 347.239 603.816 338.096C603.197 337.178 602.52 336.3 601.789 335.469C597.478 330.599 591.93 326.988 585.732 325.018C579.534 323.048 572.919 322.793 566.588 324.281Z" fill="#2F2E41"/>
<path d="M508.348 457.071L508.752 457.62L480.165 478.654L479.761 478.105L508.348 457.071Z" fill="#FAD000"/>
<path d="M485.87 449.168C487.215 448.232 488.732 447.573 490.334 447.228C491.936 446.884 493.591 446.861 495.202 447.162C496.812 447.462 498.348 448.08 499.718 448.978C501.088 449.877 502.266 451.039 503.183 452.397L521.163 479.007L508.163 490.007L484.587 468.451C483.217 467.199 482.146 465.654 481.455 463.932C480.763 462.209 480.468 460.353 480.591 458.501C480.714 456.649 481.253 454.848 482.166 453.233C483.08 451.617 484.346 450.228 485.87 449.168Z" fill="#A0616A"/>
<path d="M504.163 487.007C511.471 523.721 529.256 552.034 571.163 561.007C603.203 533.357 616.088 497.21 614.142 454.484C614.02 451.827 613.362 449.223 612.207 446.827C611.051 444.432 609.423 442.296 607.419 440.548C605.415 438.799 603.078 437.475 600.548 436.655C598.018 435.835 595.349 435.536 592.7 435.776C588.721 436.138 584.947 437.703 581.879 440.262C578.811 442.821 576.595 446.254 575.525 450.104L559.163 509.007L522.226 474.965L504.163 487.007Z" fill="#FAD000"/>
<path d="M421.663 91.5068C422.193 91.5074 422.702 91.7182 423.077 92.0932C423.452 92.4682 423.663 92.9766 423.663 93.5068V249.507C423.663 250.037 423.452 250.546 423.077 250.92C422.702 251.295 422.193 251.506 421.663 251.507H291.663C291.133 251.506 290.625 251.295 290.25 250.92C289.875 250.545 289.664 250.037 289.663 249.507V93.5068C289.664 92.9766 289.875 92.4682 290.25 92.0933C290.625 91.7183 291.133 91.5074 291.663 91.5068H421.663Z" fill="#E6E6E6"/>
<path d="M408.163 236.007H305.163V107.007H408.163V236.007Z" fill="white"/>
<path d="M205.23 132.507C205.547 132.507 205.85 132.633 206.074 132.857C206.298 133.081 206.424 133.384 206.424 133.701V211.313C206.424 211.629 206.298 211.933 206.074 212.157C205.85 212.381 205.547 212.506 205.23 212.507H112.096C111.779 212.506 111.476 212.381 111.252 212.157C111.028 211.933 110.902 211.629 110.902 211.313V133.701C110.902 133.384 111.028 133.081 111.252 132.857C111.476 132.633 111.779 132.507 112.096 132.507L205.23 132.507Z" fill="#E6E6E6"/>
<path d="M197.171 141.761V203.253H120.156V141.761H197.171Z" fill="white"/>
<path d="M338.477 102.507H374.85C375.729 102.51 376.593 102.282 377.355 101.844C378.117 101.405 378.75 100.774 379.19 100.013C379.629 99.2513 379.86 98.3875 379.858 97.5084C379.856 96.6294 379.622 95.7664 379.18 95.0069L360.993 63.5069C360.979 63.481 360.963 63.4552 360.948 63.4293C360.55 62.7593 360 62.1928 359.342 61.776C358.684 61.3591 357.937 61.1038 357.161 61.0308L357.135 61.0284C356.979 61.0142 356.822 61.0069 356.663 61.0069C355.784 61.0017 354.92 61.2305 354.159 61.6699C353.398 62.1093 352.768 62.7433 352.333 63.5069L334.146 95.0069C333.708 95.767 333.477 96.6292 333.477 97.5069C333.477 98.3845 333.708 99.2467 334.147 100.007C334.585 100.767 335.217 101.398 335.977 101.837C336.737 102.276 337.599 102.507 338.477 102.507ZM375.854 97.502C375.852 97.6794 375.805 97.8533 375.716 98.0069C375.629 98.1602 375.503 98.2874 375.351 98.3753C375.199 98.4633 375.026 98.5087 374.85 98.5069H338.477C338.301 98.5088 338.128 98.4634 337.975 98.3754C337.823 98.2875 337.697 98.1602 337.61 98.0069C337.522 97.8535 337.474 97.6797 337.473 97.5025C337.474 97.3282 337.522 97.1574 337.61 97.0074L355.797 65.5069C355.885 65.3549 356.011 65.2286 356.163 65.1409C356.315 65.0531 356.488 65.0069 356.663 65.0069C356.839 65.0069 357.011 65.0531 357.163 65.1409C357.315 65.2286 357.442 65.3549 357.529 65.5069L375.716 97.0069C375.805 97.1568 375.852 97.3277 375.854 97.502Z" fill="#E6E6E6"/>
<path d="M356.663 70.5068C355.006 70.5068 353.663 69.1637 353.663 67.5068C353.663 65.85 355.006 64.5068 356.663 64.5068C358.32 64.5068 359.663 65.85 359.663 67.5068C359.663 69.1637 358.32 70.5068 356.663 70.5068Z" fill="#E6E6E6"/>
<path d="M148.803 135.007H168.523C169 135.009 169.469 134.885 169.882 134.647C170.295 134.41 170.638 134.067 170.876 133.655C171.115 133.242 171.24 132.773 171.239 132.297C171.238 131.82 171.111 131.352 170.871 130.941L161.011 113.862L160.986 113.82C160.771 113.457 160.473 113.15 160.116 112.924C159.759 112.698 159.354 112.559 158.933 112.52L158.919 112.519C158.835 112.511 158.749 112.507 158.663 112.507C158.187 112.504 157.718 112.628 157.306 112.866C156.893 113.105 156.551 113.448 156.316 113.862L146.455 130.941C146.218 131.353 146.092 131.82 146.092 132.296C146.092 132.772 146.218 133.239 146.456 133.651C146.693 134.063 147.036 134.406 147.448 134.644C147.86 134.882 148.327 135.007 148.803 135.007ZM169.068 132.293C169.067 132.39 169.041 132.484 168.993 132.567C168.946 132.65 168.878 132.719 168.795 132.767C168.713 132.815 168.619 132.839 168.523 132.838H148.803C148.708 132.839 148.614 132.815 148.531 132.767C148.449 132.719 148.38 132.65 148.333 132.567C148.285 132.484 148.26 132.39 148.259 132.294C148.259 132.199 148.285 132.107 148.333 132.025L158.194 114.947C158.241 114.864 158.31 114.796 158.392 114.748C158.475 114.701 158.568 114.676 158.663 114.676C158.758 114.676 158.852 114.701 158.934 114.748C159.017 114.796 159.085 114.864 159.133 114.947L168.993 132.025C169.041 132.106 169.067 132.199 169.068 132.293Z" fill="#E6E6E6"/>
<path d="M158.663 117.658C157.765 117.658 157.037 116.929 157.037 116.031C157.037 115.133 157.765 114.405 158.663 114.405C159.562 114.405 160.29 115.133 160.29 116.031C160.29 116.929 159.562 117.658 158.663 117.658Z" fill="#E6E6E6"/>
<path d="M406.985 186.888C405.548 183.588 403.453 180.616 400.829 178.153C398.205 175.689 395.107 173.787 391.723 172.561C388.204 171.202 384.433 170.62 380.669 170.855C376.904 171.089 373.235 172.134 369.911 173.918C362.107 178.059 355.869 184.571 347.944 188.534C340.237 192.352 331.758 194.35 323.158 194.373C313.42 194.449 303.835 191.961 295.364 187.159C295.035 186.951 294.799 186.624 294.707 186.246C294.615 185.868 294.673 185.468 294.869 185.132C295.066 184.796 295.385 184.55 295.76 184.445C296.135 184.339 296.536 184.384 296.878 184.569C304.556 188.871 313.178 191.207 321.977 191.368C330.776 191.53 339.479 189.512 347.309 185.494C355.26 181.325 361.56 174.594 369.659 170.687C373.098 169.019 376.833 168.049 380.649 167.835C384.465 167.621 388.286 168.166 391.89 169.44C395.896 170.783 399.571 172.963 402.672 175.833C405.773 178.704 408.229 182.2 409.878 186.09C410.606 187.877 407.705 188.655 406.985 186.888V186.888Z" fill="#E6E6E6"/>
<path d="M409.355 214.931C392.707 211.214 375.437 211.274 358.815 215.106C344.049 218.53 328.806 224.691 313.581 220.096C306.779 218.043 300.546 213.938 297.052 207.619C296.117 205.928 298.706 204.413 299.642 206.105C306.221 218.002 321.634 220.009 333.808 218.057C341.943 216.753 349.782 214.138 357.789 212.266C375.001 208.23 392.905 208.152 410.153 212.038C412.036 212.458 411.239 215.351 409.355 214.931Z" fill="#E6E6E6"/>
<path d="M410.436 147.872C394.473 145.157 378.124 145.739 362.394 149.581C347.699 153.182 333.335 161.407 317.797 159.986C310.604 159.329 303.482 156.683 298.595 151.18C297.316 149.74 299.431 147.611 300.716 149.058C304.932 153.806 311.004 156.266 317.235 156.931C324.416 157.697 331.473 156.209 338.308 154.095C345.875 151.755 353.225 148.791 360.917 146.857C377.374 142.724 394.515 142.085 411.234 144.979C413.133 145.303 412.328 148.195 410.436 147.872Z" fill="#E6E6E6"/>
<path d="M183.759 140.747C176.862 147.81 172.105 156.681 170.037 166.334C168.447 174.013 168.626 181.954 170.561 189.553C172.496 197.153 176.136 204.212 181.205 210.196C182.448 211.659 180.336 213.791 179.083 212.317C172.178 204.181 167.769 194.225 166.385 183.644C165.377 175.476 166.224 167.186 168.865 159.391C171.506 151.597 175.872 144.499 181.638 138.626C182.992 137.245 185.112 139.367 183.759 140.747Z" fill="#E6E6E6"/>
<path d="M138.749 134.346C147.943 141.089 153.09 151.973 153.814 163.231C154.568 174.944 150.1 186.257 142.907 195.351C138.709 200.588 133.695 205.114 128.058 208.755C126.438 209.815 124.933 207.219 126.544 206.165C135.729 200.155 143.588 191.618 147.761 181.374C149.796 176.508 150.851 171.288 150.865 166.013C150.88 160.739 149.855 155.514 147.848 150.636C145.601 145.201 141.935 140.47 137.234 136.936C135.694 135.806 137.189 133.202 138.749 134.346Z" fill="#E6E6E6"/>
<path d="M349.663 164.507C341.931 164.507 335.663 158.239 335.663 150.507C335.663 142.775 341.931 136.507 349.663 136.507C357.395 136.507 363.663 142.775 363.663 150.507C363.663 158.239 357.395 164.507 349.663 164.507Z" fill="#E6E6E6"/>
</g>
<defs>
<clipPath id="clip0">
<rect width="882.951" height="612.148" fill="white" transform="matrix(-1 0 0 1 882.951 0)"/>
</clipPath>
<clipPath id="clip1">
<rect width="75" height="111" fill="white" transform="matrix(-1 0 0 1 521 370)"/>
</clipPath>
</defs>
</svg>
