<svg width="73" height="90" viewBox="0 0 73 90" fill="none" xmlns="http://www.w3.org/2000/svg">
<rect width="73" height="90" rx="4" fill="#DDDDDD"/>
<path d="M36.5 45C48.0203 45 57.3571 34.9277 57.3571 22.5C57.3571 10.0723 48.0203 0 36.5 0C24.9797 0 15.6429 10.0723 15.6429 22.5C15.6429 34.9277 24.9797 45 36.5 45ZM51.1 50.625H48.3788C44.7614 52.418 40.7366 53.4375 36.5 53.4375C32.2634 53.4375 28.2549 52.418 24.6212 50.625H21.9C9.80937 50.625 0 61.207 0 74.25V81.5625C0 86.2207 3.50335 90 7.82143 90H65.1786C69.4967 90 73 86.2207 73 81.5625V74.25C73 61.207 63.1906 50.625 51.1 50.625Z" fill="#CCCCCC"/>
</svg>
